<svg xmlns="http://www.w3.org/2000/svg" xmlns:xlink="http://www.w3.org/1999/xlink" width="500" height="393.7"><style>.S{fill:#fc5b3f}.T{fill:#e8a825}.U{fill:#f8c244}.V{fill:#f9c6d6}.W{fill:#565056}.X{enable-background:new}</style><path d="M481.3 238.3a265.95 265.95 0 00-6.6-11.6l-6.7-10.6c-10.1-15.1-21.3-30-26.2-47.5-6.1-21.6 0-45.6-6.5-66.6-5.6-18.2-22.5-37.2-35.2-50.7C371.7 21.3 333.3-.5 291.3 0c-8.1.1-16.1 1-24.1 2.5-15.7 2.9-31.2 7.8-46.4 13-38.5 13-77.1 27.6-110.1 51.3S50.5 124.6 43 164.6c-3.9 20.6-2.5 42.4-9.2 62.3-8 23.9-25.8 39.5-31.5 64.3-6.5 28.5.3 62.2 24.2 79.1 12.4 8.8 28 12 43 13.8 37.9 4.4 76.3.7 112.7-10.8 20.5-6.5 40.8-15.6 62.3-15.7 23.2-.1 44.9 10.2 66.5 18.6 33.2 12.7 69 21.4 104 15.8s69-28 80.5-61.5c10.5-30.4 1.3-63.1-14.2-92.2z" opacity=".18" class="S X"/><linearGradient id="A" gradientUnits="userSpaceOnUse" x1="264.338" y1="349.89" x2="268.696" y2="353.144"><stop offset=".01"/><stop offset=".08" stop-opacity=".69"/><stop offset=".21" stop-opacity=".32"/><stop offset="1" stop-opacity="0"/></linearGradient><path d="M265.5 350.9l1 .1c.7.6-1.3.7-1-.1z" fill="url(#A)"/><linearGradient id="B" gradientUnits="userSpaceOnUse" x1="-151.28" y1="-51.844" x2="957.14" y2="777.164"><stop offset=".01"/><stop offset=".08" stop-opacity=".69"/><stop offset=".21" stop-opacity=".32"/><stop offset="1" stop-opacity="0"/></linearGradient><path d="M481.3 238.3c-7.2 2.9-14.9 5.7-19.6 9l-111.2 78.1c-8.5 6.2-17.4 11.8-26.6 16.9-7.5 4-11.8 11.8-20.9 13.8-4.5.8-9.1.7-13.6-.2-7.3-1.2-14.5-3-21.5-5.5-.9-.3-2.1-.5-2.5.4-64.8-8.8-126.8-32.4-191-44.6-1.9-.4-3.2-2.2-2.8-4.1.2-1.2 1-2.2 2.2-2.6 5.4-1.9 10.9-3.3 16.6-4.1l30.8-5.4c20.7-3.6 41.6-5.9 62.6-7 34.9-1.5 70 2.3 104.5-3.2 32.7-5.1 63.6-18.2 94.1-31.3 7.4-3.2 14.8-6.4 20.6-12 4.5-4.3 8.1-10.1 13.9-12.9 5.8-2.9 13.3-2.4 19.7-2.1 12.8.9 25.5 2.6 38 5.1 2.4 3.9 4.6 7.8 6.7 11.7z" fill="url(#B)"/><use xlink:href="#J" class="S"/><linearGradient id="C" gradientUnits="userSpaceOnUse" x1="221.467" y1="189.008" x2="336.516" y2="554.373"><stop offset=".01"/><stop offset=".08" stop-opacity=".69"/><stop offset=".21" stop-opacity=".32"/><stop offset="1" stop-opacity="0"/></linearGradient><use xlink:href="#J" fill="url(#C)"/><path d="M413.2 241.8l-106.3 90.5c-6.5 5.7-15.4 8-23.8 6L78.6 288.6c-2.6-.6-2.9-4.8-.5-6l115.6-65.1c3.1-1.6 6.7-2.2 10.2-1.7l207.5 18.1c3.4.4 4.6 5.5 1.8 7.9z" class="S"/><linearGradient id="D" gradientUnits="userSpaceOnUse" x1="286.716" y1="119.637" x2="216.358" y2="595.148"><stop offset=".01"/><stop offset=".08" stop-opacity=".69"/><stop offset=".21" stop-opacity=".32"/><stop offset="1" stop-opacity="0"/></linearGradient><path d="M203.9 220.8l189.6 28-58.3 47.4-194.7-39.4z" fill="url(#D)"/><linearGradient id="E" gradientUnits="userSpaceOnUse" x1="213.63" y1="231.619" x2="448.705" y2="312.962"><stop offset=".01"/><stop offset=".08" stop-opacity=".69"/><stop offset=".21" stop-opacity=".32"/><stop offset="1" stop-opacity="0"/></linearGradient><path d="M280 270.6a71.7 71.7 0 0022.8-9.1c1.9-1.2 4.1-3.5 2.9-5.5-.8-1.5-2.7-1.9-3.2-3.4 2.6-1 5.4-.6 7.7-2.6s2.6-5.9.1-7.4c2-.1 3.8-.8 5.5-1.8a4.37 4.37 0 001.6-5.1c-.9-1.9-3.3-2.4-5.3-2.7-2.8-.6-5.7-.8-8.6-.7a23.97 23.97 0 00-9.4 2.9c-2.7 1.5-4.9 4-7.6 5.4-5.5 2.8-12.7 2.5-18.7 3.8-4.4 1-8.7 2.6-13 3.9s-8.5 2.3-12.8 3.2l-31.2 6.5c.7 4.6 5.6 7.2 10 9a93.36 93.36 0 0018.8 5.9c5.1.7 10.2 1 15.3.7 8.5-.3 16.9-1.2 25.1-3z" fill="url(#E)"/><linearGradient id="F" gradientUnits="userSpaceOnUse" x1="216.962" y1="186.122" x2="162.758" y2="552.518"><stop offset=".01"/><stop offset=".08" stop-opacity=".69"/><stop offset=".21" stop-opacity=".32"/><stop offset="1" stop-opacity="0"/></linearGradient><path d="M184 268.6l78.2 15.8-40.4 33-81.3-18.3z" fill="url(#F)"/><linearGradient id="G" gradientUnits="userSpaceOnUse" x1="179.284" y1="294.933" x2="150.452" y2="369.09"><stop offset=".01"/><stop offset=".08" stop-opacity=".69"/><stop offset=".21" stop-opacity=".32"/><stop offset="1" stop-opacity="0"/></linearGradient><path d="M144.9 304.8c1.6 3.3 4.5 5.7 8.1 6.6l39.2 10s5.4.6 8.5-2.9l-55.8-13.7z" fill="url(#G)"/><path d="M197.9 215.8l214 30.5c3.3.5 6.3-1.7 7-4.9l30.5-154.2c1.3-6.5-2.9-12.8-9.4-14-.4-.1-.9-.1-1.3-.2L227.4 54.2c-6.5-.6-12.2 4.1-12.9 10.6l-16.6 151z" class="S"/><linearGradient id="H" gradientUnits="userSpaceOnUse" x1="306.836" y1="1.674" x2="430.397" y2="1080.791"><stop offset=".01"/><stop offset=".08" stop-opacity=".69"/><stop offset=".21" stop-opacity=".32"/><stop offset="1" stop-opacity="0"/></linearGradient><path d="M197.9 215.8l213.5 30.4c3.6.5 6.9-1.9 7.6-5.4l30.4-153.6c1.3-6.5-2.9-12.8-9.4-14-.4-.1-.9-.1-1.3-.2L227.4 54.2c-6.5-.6-12.2 4.1-12.9 10.6l-16.6 151z" fill="url(#H)"/><path d="M408.1 237.4l30.4-155.6-215.6-20-17.1 147.4z" fill="#fff"/><path d="M189 301.9c-.1.8.2 1.6.8 2.3.3.2.7.4 1 .4 1 .2 2 .3 2.9.2 1.8-.1 3.6-.4 5.4-.8l3.1-.6c.4 0 .8-.2 1-.5.2-.4.1-.9-.2-1.2-.5-.6-1.2-1.1-2-1.3-1.8-.8-3.8-1.4-5.7-1.8-.3 0-.6-.2-.9-.4-.4-.3-.5-.9-.7-1.4-.5-.8-1.5-1.2-2.4-.9-.9.2-2.2.8-2.4 1.8-.1 1.4-.1 2.8.1 4.2z" class="V"/><path d="M198.9 299c-.6-.2-1.3 0-1.8.5-.5.8.2 1.9-.5 2.6-.4.3-.9.5-1.4.4h-3.4c-.9 0-1.8 0-2.7-.2-.2-.1-.4-.1-.6-.1-.3.1-.5.4-.6.7 0 .3 0 .6.1.9.2.6.5 1.2.9 1.7a.78.78 0 00.4.4c.2.1.4.1.6.1l6.1-.1 4.2-.4c2 0 4-.3 5.9-1 .5-.2.9-.5 1.1-1 .1-.4 0-.9-.3-1.3s-.6-.6-1-.9c-1.1-.7-2.3-1.2-3.6-1.5-1-.4-2.1-.7-3.4-.8z" class="W"/><path d="M151.7 298.1v.2c.1 2.7 3.7 2.8 5.6 2.7 1.8-.1 3.7-.4 5.4-.8l3.1-.6c.4 0 .8-.2 1-.5.2-.4.1-.9-.2-1.2-.5-.6-1.2-1.1-2-1.3l-5.1-1.6c-1.5-.5-.3-2.6-.1-3.7.1-.2.1-.5 0-.7-.2-.2-.4-.4-.7-.5-.9-.3-1.8-.5-2.8-.5-.2 0-.4 0-.5.1a.55.55 0 00-.3.5l-2.9 6.3c-.3.5-.4 1.1-.5 1.6z" class="V"/><g fill="#473f47"><path d="M153 218.3s-2.2 12.4 2.3 21.7c2.4 5 5 9.8 8 14.5 0 0-9.5 10.2-9.5 23.1s-.2 13.5-.2 13.5l5.7 2.9 14.1-39.5s.9-5.6 0-7.5-8.1-23.4-8.1-23.4l-12.3-5.3zm51.3-50.2c-2.9 0-6.1-3.1-7.9-8-2.1-5.6-1.2-10.7 2.1-11.9 3.2-1.2 7.2 2.1 9.3 7.7 2.1 5.6 1.2 10.7-2.1 11.9-.4.2-.9.3-1.4.3zm-4.4-17.4c-.2 0-.3 0-.5.1-1.5.6-2.1 4.3-.5 8.5s4.4 6.7 5.9 6.2 2.1-4.3.5-8.5c-1.5-3.8-4-6.2-5.5-6.2h.1z"/><path d="M216 180.4c-.4 0-.8-.2-1-.5l-9.7-12.3c-.5-.6-.4-1.4.2-1.8.6-.5 1.4-.4 1.8.2l9.7 12.3c.5.6.4 1.4-.2 1.8-.2.2-.5.3-.8.3z"/></g><path d="M198.7 162.1c.2 1.3.2 2.6.2 3.9-.2 1-.9 1.9-1.7 2.5-.9.6-1.8 1-2.8 1.2-.3.1-.6.2-.8.4-.4.4-.5 1-.4 1.6v3.3c0 .3 0 .7-.2 1-.2.2-.4.3-.6.3-1.7.4-3.4-.5-4-2l-1.3-2.1c-.4-.9-.7-1.9-.8-2.9-.3-3.2.3-6.4 1.7-9.3.9-1.8 2.2-3.4 3.9-4.6 1.3-.9 3.8-2.3 5.2-.7.7.8.6 2 1.3 2.8.4.6 1.2 1 1.4 1.8.1.7-.4 1.3-.6 1.9-.5.2-.5.5-.5.9zm9.7 6.8v-.2c0-.8.3-1.5.8-2.1s1.4-.7 2.1-.3c.3.2.4.5.7.6s.9 0 1.2.4.2.6.4 1 .6.6.9.9c1.4 1.5-.1 4.2-.7 5.7l-2.3 6.9c-.8.1-1.6 0-2.4-.5-.3-.2-.5-.4-.7-.6-.5-.8-.6-1.8-.3-2.7.2-.7.2-1.4.1-2l-.7-2.2c-.2-.6-.4-1.4.1-1.8.2-.1.4-.2.5-.4s.2-.4.2-.6c.2-.8.1-1.5.1-2.1z" class="V"/><path d="M181.5 223.6l13.7 30.9-.6 43.8-6.3-.5s-10.8-24.9-3.8-40.3c0 0-16.7-14.2-22.8-22.3-7.6-10-5.9-18.3-5.9-18.3l25.7 6.7z" class="W"/><path d="M187.9 170.4c1.7.4 3.3 1 4.9 1.7 5.3 2.4 5.5 6.6 7.4 11.6 1.2 3.2 2.5 6.3 4 9.3l2.5-15 7 2.9s.7 22.2-4.4 25.2c-3.3 1.9-8-.3-11-1.9-1.1-.6-2.9-2.3-4.1-2.4-2.3-.3-2.4 2.4-4.4 3.9-1.3.8-2.6 1.6-3.7 2.5-1.1 1.3-2 2.8-2.5 4.4-.6 2-.7 4.1-.5 6.2.3 1.4 0 2.9-.8 4-.6.5-1.3.8-2 .9-2.5.4-5.1.3-7.6-.1a78.27 78.27 0 01-14.6-2.6c-1.7-.5-3.4-1.2-5.1-2-.4-.2-.7-.4-1-.6-.3-.4-.5-.8-.6-1.2-.7-3 1.5-5.9 2.6-8.7.7-1.9 1-4.1 1.6-6 .9-2 2-3.9 3.3-5.6 1-1.5 1.5-3.4 2.5-4.9 2.7-4.1 5.6-7.9 8.8-11.6 1.9-2.3 4-4.5 6.3-6.4 2.6-2.3 6-3.6 9.4-3.7.8-.1 1.4 0 2 .1z" class="S"/><path d="M182 142.2c-1.8.3-3.6 1-5.1 2.1-3.2 2.6-4 7.4-7 10.2-2.6 2.4-6.4 2.8-9.9 3.2 2.4 6.8 9.8 10.4 16.7 8.1h.1l-3.6 3.6c-.1.1-.2.2-.2.3 0 .2.2.4.4.5 1.7.6 3.5.6 5.2-.1 0 1.6 1.2 2.9 2.8 3.1 1.1.2 2.2 0 3.2-.4.6-.2 1.2-.3 1.8-.3.5 0 1 .3 1.5.1 1.5-1 2.8-2.3 3.5-4 1.2-2.6-.5-5.9.9-8.5 1.2-2.1 4.8-2.7 5.4-5 .6-2.6-.8-6.3-2.3-8.4a11.78 11.78 0 00-7-4.5c-1.6-.3-3.3-.3-5-.1l-1.4.1z" fill="#fc682d"/><path d="M162 294.8c-.6-.2-1.3 0-1.8.5-.5.7.2 1.9-.5 2.6-.4.3-.9.5-1.4.4h-3.4c-.9.1-1.8 0-2.7-.2-.2-.1-.4-.1-.6-.1-.3.1-.5.4-.6.7 0 .3 0 .6.1.9.2.6.5 1.2.9 1.7.1.2.3.3.4.4.2.1.4.1.6.1l6.1-.1 4.2-.4c2 0 4-.4 5.9-1 .5-.2.9-.5 1.1-1 .1-.4 0-.9-.3-1.3-.3-.3-.6-.6-1-.9-1.1-.7-2.3-1.2-3.6-1.5-1-.4-2.2-.7-3.4-.8z" class="W"/><path d="M252.2 271.9c-23.8-.3-43-8.5-42.9-18.2 0-1.1-.8-7.2-.3-8.2 3.8-8.2 22.5-9.1 43.7-8.8 20.8.3 38.3 0 42.2 8.1.6 1.1.7 9 .6 10.1 0 9.7-19.5 17.3-43.3 17z" class="T"/><g transform="rotate(-89.18 252.159 246.16)"><ellipse cx="252.2" cy="246.2" rx="17.6" ry="43.1" class="U"/><ellipse cx="252.2" cy="246.2" rx="15" ry="36.7" class="T"/></g><path d="M229 244.4l5.9.1c.2-1.6 1.2-2.9 2.6-3.6l3.9.6c-1.4.6-2.3 1.9-2.5 3.4 0 1.7 2.4 2.9 5.7 2.9 2.6.2 5.1-.8 6.9-2.6 2.6-2.7 6.4-4.1 10.1-3.8 4.8 0 8.5 1.5 9.4 3.7l5.9.1v1.5l-5.7-.1a4.23 4.23 0 01-2.1 3.1l-3.8-.6c1.1-.6 1.8-1.7 2-2.9 0-1.8-2.6-2.6-5-2.6-2.6-.1-5 .9-6.7 2.9-2.5 2.4-5.5 3.6-10.8 3.6-4.6 0-9-1.5-9.9-3.9l-6.1-.1.2-1.7z" class="U"/><path d="M245.4 254.5c-23.8-.3-43-8.5-42.9-18.2 0-1.1-.8-7.2-.4-8.2 3.8-8.2 22.5-9.1 43.7-8.8 20.8.3 38.3 0 42.2 8.1.6 1.1.7 9 .6 10.1.1 9.6-19.4 17.3-43.2 17z" class="T"/><g transform="rotate(-89.18 245.363 228.726)"><ellipse cx="245.4" cy="228.7" rx="17.6" ry="43.1" class="U"/><ellipse cx="245.4" cy="228.7" rx="15" ry="36.7" class="T"/></g><path d="M222.2 227l5.9.1c.2-1.6 1.2-2.9 2.6-3.6l3.9.6c-1.4.6-2.3 1.9-2.5 3.4 0 1.7 2.4 2.9 5.7 2.9 2.6.2 5.2-.7 7-2.6 2.6-2.7 6.4-4.1 10.1-3.8 4.8 0 8.5 1.5 9.4 3.7l5.9.1v1.5l-5.7-.1a4.23 4.23 0 01-2.1 3.1l-3.8-.6c1.1-.6 1.8-1.7 2-2.9 0-1.8-2.6-2.5-5-2.6-2.6-.1-5 .9-6.7 2.9-2.5 2.4-5.5 3.6-10.8 3.6-4.6 0-9-1.5-9.9-3.9l-6.1-.1.1-1.7z" class="U"/><path d="M265.5 246.2c-23.8-.4-43-8.5-42.9-18.2 0-1.1-.8-7.2-.3-8.2 3.8-8.2 22.5-9.1 43.7-8.8 20.8.3 38.3 0 42.2 8.1.6 1.1.7 9 .6 10.2-.1 9.6-19.5 17.2-43.3 16.9z" class="T"/><g transform="rotate(-89.18 265.427 220.451)"><ellipse cx="265.4" cy="220.5" rx="17.6" ry="43.1" class="U"/><ellipse cx="265.4" cy="220.5" rx="15" ry="36.7" class="T"/></g><path d="M242.2 218.7l5.9.1c.2-1.6 1.2-2.9 2.6-3.6l3.9.6c-1.4.6-2.3 1.9-2.6 3.4 0 1.7 2.4 2.9 5.7 2.9 2.6.2 5.2-.7 7-2.6 2.6-2.7 6.4-4.1 10.1-3.8 4.8 0 8.5 1.5 9.4 3.7l5.9.1v1.5l-5.7-.1c-.2 1.3-1 2.4-2.1 3.1l-3.8-.6c1.1-.6 1.8-1.7 2-2.9 0-1.8-2.7-2.5-5-2.6-2.6-.1-5 .9-6.7 2.9-2.5 2.4-5.5 3.6-10.8 3.6-4.6 0-9-1.5-9.9-3.9l-6.1-.1.2-1.7z" class="U"/><g class="S"><path d="M236.4 161.8c-.7-.5 2.9-24.8 2.9-24.8l12.4 1.2-3.2 24.4-12.1-.8zm24.7 2.4c-.7-.5 5.5-36.8 5.5-36.8l12.4 1.2-5.7 36.5-12.2-.9zm24.7 2.4c-.7-.5 9.2-65.2 9.2-65.2l12.4 1.2-9.4 64.9-12.2-.9zm24.6 2.4c-.7-.5 7.1-49.2 7.1-49.2l12.4 1.2-7.2 48.8-12.3-.8zm12.5 7.6l-96.7-7 .1-.6 10.3-76.7 1.1.3c-.4 1.5-6.7 49.9-10.1 75.9l95.5 6.9-.2 1.2z"/><path d="M363.8 198.6l2.3-11.9c-6.3.1-12.4-1.6-17.7-5l4.4-7.9c4.9 3.3 10.6 5 16.5 4.9 8.7 0 15.4-4.9 16.7-11.6s-2.7-10.5-11.1-14c-11.5-4.6-18.2-10-16.2-20.2 1.9-9.8 10.5-17.2 22.1-19.1l2.3-11.9h7.6l-2.3 11.4c5.3 0 10.5 1.3 15 4l-4.5 7.9c-4.4-2.7-9.4-4.1-14.6-3.9-9.4 0-13.9 5.5-14.8 10.2-1.2 6.1 2.8 9.2 12.5 13.3 11.6 4.9 16.8 10.9 14.7 21.4-1.8 9.3-10.2 18.1-23.1 20.2l-2.3 12.2h-7.5z" opacity=".39" class="X"/></g><defs><path id="J" d="M77.4 284.3L222.9 221c3.2-1.6 6.7-2.2 10.2-1.7l180 15.3c3.4.5 2.8 15.3 0 17.7l-106.3 90.6a26.76 26.76 0 01-23.8 5.9L78.7 299.1c-2.7-.7-3.8-13.6-1.3-14.8z"/></defs></svg>